<?xml version="1.0" encoding="UTF-8"?>
<svg id="Layer_1" data-name="Layer 1" xmlns="http://www.w3.org/2000/svg" xmlns:xlink="http://www.w3.org/1999/xlink" viewBox="0 0 1840.8 384.13">
  <defs>
    <style>
      .cls-1 {
        fill: url(#New_Gradient_Swatch_copy);
      }

      .cls-2 {
        fill: #fff;
      }

      .cls-3 {
        fill: none;
      }

      .cls-4 {
        fill: url(#New_Gradient_Swatch_copy-2);
      }

      .cls-5 {
        fill: url(#New_Gradient_Swatch);
      }

      .cls-6 {
        fill: #f8fafb;
      }

      .cls-7 {
        fill: url(#linear-gradient);
      }

      .cls-8 {
        clip-path: url(#clippath);
      }
    </style>
    <linearGradient id="New_Gradient_Swatch_copy" data-name="New Gradient Swatch copy" x1="2.53" y1="203.87" x2="317.94" y2="203.87" gradientUnits="userSpaceOnUse">
      <stop offset=".29" stop-color="#12c5f4"/>
      <stop offset=".92" stop-color="#0062fe"/>
    </linearGradient>
    <clipPath id="clippath">
      <path class="cls-3" d="M316.06,66.02l.79-66.02H4.71l-.84,66.02s-10.78,98.79,28.06,185.51c37.2,83.06,118.92,127.08,128.04,132.05,9.12-4.96,90.18-50.83,128.04-132.05,40.14-86.13,28.06-185.51,28.06-185.51Z"/>
    </clipPath>
    <linearGradient id="linear-gradient" x1="-16.31" y1="298.15" x2="195.7" y2="83.27" gradientUnits="userSpaceOnUse">
      <stop offset="0" stop-color="#0d0c2f"/>
      <stop offset=".19" stop-color="#0a1d59"/>
      <stop offset=".95" stop-color="#0062fe"/>
    </linearGradient>
    <linearGradient id="New_Gradient_Swatch_copy-2" data-name="New Gradient Swatch copy" x1="0" y1="181.57" x2="301.87" y2="181.57" xlink:href="#New_Gradient_Swatch_copy"/>
    <linearGradient id="New_Gradient_Swatch" data-name="New Gradient Swatch" x1="1.03" y1="114.18" x2="304.11" y2="114.18" gradientUnits="userSpaceOnUse">
      <stop offset=".34" stop-color="#0d0c2f"/>
      <stop offset=".75" stop-color="#0062fe"/>
    </linearGradient>
  </defs>
  <g>
    <path class="cls-6" d="M518.82,123.55c13.37,16.3,20.05,43.3,20.05,80.46s-6.68,64.15-20.05,80.46c-13.1,16.3-35.28,24.32-66.56,24.32-29.14,0-55.06-.8-77.52-2.67-3.21-.27-4.01-1.07-4.01-3.47V105.64c0-2.94.8-3.47,4.01-3.74,21.65-1.87,47.31-2.94,77.52-2.94s53.46,8.29,66.56,24.59ZM412.7,135.58v136.59h39.56c32.08,0,44.1-19.78,44.1-68.16s-12.83-68.43-46.24-68.43h-37.42Z"/>
    <path class="cls-6" d="M707.81,100.56c2.67,0,4.01,1.34,4.01,4.01v28.6c0,2.67-1.34,4.01-4.01,4.01h-95.96v50.52h87.67c2.94,0,4.28,1.34,4.28,4.01v27.26c0,2.67-1.34,4.01-4.28,4.01h-87.67v47.85h95.96c2.67,0,4.01,1.34,4.01,4.01v28.6c0,2.67-1.34,4.01-4.01,4.01h-133.92c-2.67,0-4.01-1.34-4.01-4.28V104.57c0-2.67,1.34-4.01,4.01-4.01h133.92Z"/>
    <path class="cls-6" d="M875.95,100.56c2.67,0,4.01,1.34,4.01,4.01v28.6c0,2.67-1.34,4.01-4.01,4.01h-90.88v50.79h82.6c2.94,0,4.28,1.34,4.28,4.01v27.26c0,2.67-1.34,4.01-4.28,4.01h-82.6v79.92c0,2.94-1.34,4.28-4.01,4.28h-33.95c-2.67,0-4.01-1.34-4.01-4.28V104.57c0-2.67,1.34-4.01,4.01-4.01h128.84Z"/>
    <path class="cls-6" d="M1043.28,100.56c2.67,0,4.01,1.34,4.01,4.01v28.6c0,2.67-1.34,4.01-4.01,4.01h-95.96v50.52h87.67c2.94,0,4.28,1.34,4.28,4.01v27.26c0,2.67-1.34,4.01-4.28,4.01h-87.67v47.85h95.96c2.67,0,4.01,1.34,4.01,4.01v28.6c0,2.67-1.34,4.01-4.01,4.01h-133.92c-2.67,0-4.01-1.34-4.01-4.28V104.57c0-2.67,1.34-4.01,4.01-4.01h133.92Z"/>
    <path class="cls-6" d="M1246.44,100.56c2.67,0,4.01,1.34,4.01,4.28v198.34c0,2.94-1.34,4.28-4.01,4.28h-24.86c-5.61,0-10.16-2.14-13.37-6.68l-87.67-128.57v130.98c0,2.94-1.34,4.28-4.01,4.28h-33.95c-2.67,0-4.01-1.34-4.01-4.28V104.84c0-2.94,1.34-4.28,4.01-4.28h26.46c11.23,1.07,11.23,1.6,16.57,8.82l82.86,121.09v-125.63c0-2.94,1.34-4.28,4.01-4.28h33.95Z"/>
    <path class="cls-6" d="M1436.5,123.55c13.36,16.3,20.05,43.3,20.05,80.46s-6.68,64.15-20.05,80.46c-13.1,16.3-35.28,24.32-66.56,24.32-29.14,0-55.06-.8-77.52-2.67-3.21-.27-4.01-1.07-4.01-3.47V105.64c0-2.94.8-3.47,4.01-3.74,21.65-1.87,47.31-2.94,77.52-2.94s53.46,8.29,66.56,24.59ZM1330.38,135.58v136.59h39.56c32.08,0,44.11-19.78,44.11-68.16s-12.83-68.43-46.24-68.43h-37.42Z"/>
    <path class="cls-6" d="M1623.88,113.66c11.49,9.62,17.11,27.53,17.11,53.99,0,20.05-2.94,34.75-9.09,44.1-6.15,9.09-16.57,15.24-31.81,18.18l45.44,72.17c2.14,2.94.8,5.35-3.21,5.35h-33.68c-5.61,0-7.75-1.6-10.69-5.88l-43.84-68.96h-24.59v70.57c0,3.47-.8,4.28-4.01,4.28h-33.95c-3.21,0-4.01-.8-4.01-4.28V105.64c0-2.94.8-3.47,4.01-3.74,21.65-1.87,45.17-2.94,71.1-2.94,29.67,0,49.99,4.81,61.21,14.7ZM1529.52,135.58v64.69h28.87c16.3,0,27.26-1.87,32.34-5.61,5.08-4.01,7.75-12.56,7.75-25.93s-2.67-22.19-8.02-26.46c-5.35-4.54-16.04-6.68-32.08-6.68h-28.87Z"/>
    <path class="cls-6" d="M1780.26,104.3c5.08,3.47,9.36,12.3,13.37,26.73l47.05,172.14c.53,2.94-.54,4.28-3.48,4.28h-34.21c-2.14,0-2.67-.8-3.47-4.28l-15.24-55.6h-71.64l-15.5,55.6c-.8,3.47-1.34,4.28-3.74,4.28h-33.95c-2.94,0-4.01-1.34-3.47-4.28l47.85-172.14c4.01-14.43,8.29-23.25,13.36-26.73,5.08-3.48,15.24-5.35,31.01-5.35s27,1.87,32.08,5.35ZM1741.5,141.99l-19.51,70.83h52.93l-19.25-70.83c-1.87-6.42-1.87-7.75-7.49-7.75-4.28,0-4.81,1.07-6.68,7.75Z"/>
  </g>
  <g>
    <path class="cls-1" d="M160.13,384.13c9.12-4.96,90.19-50.83,128.05-132.06,40.14-86.13,28.06-185.52,28.06-185.52l-25.38-12.5c-82.43-40.6-179.04-40.6-261.46,0l-25.38,12.5s-3.34,28.89-.03,69.03l63.79-30.33h0c58.35-28.13,126.33-28.13,184.68,0l2.19,1.05s1.95,47.94-21.83,110.3c-21.98,57.64-66.14,87.96-72.7,92.22v75.31Z"/>
    <g class="cls-8">
      <g>
        <path class="cls-7" d="M0,121.45s24.53-8,23.41-17.55c-1.12-9.54-20.86-8.03-20.86-8.03,0,0,14.32-9.94,28.63-10.39,14.31-.44,49.12,8.98,54.18-1.68,5.05-10.67-17.92-18.16-17.92-18.16,0,0,29.66-4.55,65.51,10.85,0,0-41.42-44.62-75.1-65.67,0,0,65.94,26.88,85.61,40.98,0,0-15.16-33.4-33.4-51.65,0,0,46.6,28.63,77.19,74.67,0,0,8.42,11.79,14.32,7.02,4.19-3.39-.63-10.45-.63-10.45,0,0,50.23,32.79,43.73,47.83-5.54,12.82-30.19-5.93-30.19-5.93l-16.84.28s15.05,11.13,18.81,17.4c0,0,14.37-3.2,21.34-2.86,10.83.53,24.9,13.17,30.8,11.8,3.96-.92,2.13-9.37,2.13-9.37,27.59,20.49,31.16,57.3,31.16,57.3,0,0-14.03-7.96-21.15-11.96,0,0-4.16,7.04-10.34,12.09,0,0-.86-12.58-20-22.35-23.36-11.93-57.81-14.44-57.81-14.44,0,0,8.97,3.54,12.58,11.48,3.49,7.66,4.14,23.64,14.7,28.76,8.8,4.26,15.11,4.12,15.11,4.12,0,0-.28,5.61-7.58,9.26,0,0,9.8,8.03,22.48,4.43,0,0-24.26,25.61-58.41,1.15,0,0,8.2-.05,8.14-7.27-.06-7.56-35.09-19.93-35.09-19.93,0,0,13.28,1.71,11.1-3.44-1.22-2.87-32.94-8.87-53.21,17.19-23.58,30.32-13.96,57.07-13.96,57.07,0,0,7.16-9.94,25.05-11.93,0,0-52.9,63.96-6.21,120.92,0,0-71.37-48.51-121.34-154.18L0,121.45Z"/>
        <path class="cls-4" d="M123.91,12.91c16.16,12.21,42.03,34.36,61.26,63.29l.02.04.02.03c.67.94,6.76,9.2,13.21,9.2,1.74,0,3.32-.57,4.71-1.69,2.04-1.65,2.71-3.83,2.64-6.04,4.7,3.33,11.41,8.3,17.83,13.81,14.04,12.05,20.88,21.77,18.76,26.67-.89,2.06-2.41,2.98-4.94,2.98-6.9,0-17.82-7.15-21.45-9.91l-.69-.52h-.86s-16.84.29-16.84.29l-7.37.12,5.92,4.38c4.08,3.01,15.28,11.88,18.15,16.68l.93,1.55,1.76-.39c.13-.03,12.76-2.83,19.69-2.83.35,0,.68,0,.99.02,5.06.25,11.32,3.66,16.84,6.67,5.15,2.81,9.6,5.23,13.11,5.23.54,0,1.05-.06,1.53-.17,2.85-.66,4.12-3.22,4.43-6.25,17.09,15.26,23.1,37.27,25.01,47.02-4.74-2.69-12.12-6.87-16.64-9.41l-2.13-1.2-1.24,2.1c-.03.05-2.7,4.53-6.83,8.73-1.89-4.96-6.92-13.16-20.22-19.95-23.54-12.03-57.33-14.6-58.76-14.71l-16.27-1.18,15.17,5.99c.08.03,8.07,3.25,11.22,10.19.9,1.98,1.64,4.75,2.43,7.68,2.16,8.07,4.85,18.12,13.45,22.29,5.43,2.63,9.97,3.68,12.87,4.1-.8,1.45-2.35,3.29-5.37,4.8l-3.44,1.72,2.98,2.44c.28.23,6.49,5.24,15.57,5.86-4.72,2.86-11.75,5.87-20.4,5.87-7.78,0-15.69-2.4-23.57-7.15.76-.42,1.5-.96,2.17-1.63,1.67-1.69,2.53-3.97,2.51-6.59-.02-2.94-2.21-7.3-19.02-15.05-2.55-1.17-5.08-2.26-7.41-3.22.87-.43,1.52-1,1.99-1.7.48-.72,1.15-2.25.25-4.35-1.77-4.17-14.5-4.22-15.04-4.22-7.88,0-27.79,2.03-42.43,20.85-24.14,31.04-14.75,58.3-14.34,59.45l1.59,4.4,2.78-3.77c.24-.32,5.23-6.93,17.3-9.87-4.56,6.57-12.2,19-17.26,34.81-8.15,25.5-6.16,49.68,5.68,70.78-7.36-6.16-17.49-15.26-29.02-27.39-21.79-22.92-53.13-61.57-78.76-115.64L2.62,123.17c2.32-.85,6.51-2.5,10.68-4.72,8.95-4.77,13.19-9.77,12.59-14.85-.65-5.49-5.69-8.94-14.39-9.99,5.24-2.59,12.55-5.42,19.75-5.64.31,0,.63-.01.96-.01,4.19,0,10.06.74,16.27,1.52,7.47.94,15.2,1.91,21.92,1.91,6.06,0,14.43-.68,17.21-6.53,1.23-2.59,1.28-5.33.16-7.94-1.7-3.95-5.88-7.12-9.96-9.43.23,0,.47,0,.71,0,12.41,0,31.76,1.96,53.45,11.28l10.85,4.66-8.03-8.65c-.34-.37-28.37-30.44-56.95-52.83,21,9.08,51.94,23.09,64.18,31.87l7.58,5.44-3.86-8.5c-.48-1.06-9.4-20.56-21.82-37.86M110.06.15c18.25,18.25,33.4,51.65,33.4,51.65C123.79,37.7,57.84,10.82,57.84,10.82c33.68,21.05,75.1,65.67,75.1,65.67-22.53-9.68-42.62-11.48-54.43-11.48-6.98,0-11.08.63-11.08.63,0,0,22.97,7.5,17.92,18.16-1.84,3.89-7.64,5.11-14.95,5.11-12.29,0-28.86-3.44-38.19-3.44-.36,0-.7,0-1.04.02-14.31.44-28.63,10.39-28.63,10.39,0,0,1.14-.09,2.9-.09,5.53,0,17.11.87,17.97,8.12,1.12,9.54-23.41,17.55-23.41,17.55l5.95,87.35c49.97,105.67,121.34,154.18,121.34,154.18-46.69-56.96,6.21-120.92,6.21-120.92-17.89,1.99-25.05,11.93-25.05,11.93,0,0-9.62-26.76,13.96-57.07,12.4-15.95,29.09-19.89,40.46-19.89,7.21,0,12.27,1.59,12.75,2.7,1.31,3.09-2.97,3.71-6.59,3.71-2.4,0-4.51-.27-4.51-.27,0,0,35.03,12.37,35.09,19.93.06,7.23-8.14,7.27-8.14,7.27,11.04,7.9,21.04,10.58,29.53,10.58,17.77,0,28.88-11.73,28.88-11.73-2.32.66-4.55.93-6.63.93-9.31,0-15.85-5.36-15.85-5.36,7.3-3.65,7.58-9.26,7.58-9.26,0,0-.03,0-.08,0-.75,0-6.8-.13-15.03-4.12-10.56-5.12-11.21-21.1-14.7-28.76-3.61-7.93-12.58-11.48-12.58-11.48,0,0,34.44,2.5,57.81,14.44,19.13,9.77,20,22.35,20,22.35,6.18-5.05,10.34-12.09,10.34-12.09,7.11,4,21.15,11.96,21.15,11.96,0,0-3.57-36.82-31.16-57.3,0,0,1.83,8.46-2.13,9.37-.3.07-.63.1-.97.1-6.36,0-19.56-11.4-29.83-11.91-.35-.02-.73-.03-1.11-.03-7.28,0-20.23,2.89-20.23,2.89-3.75-6.27-18.81-17.4-18.81-17.4l16.84-.28s13.69,10.42,22.96,10.42c3.17,0,5.82-1.22,7.23-4.48,6.49-15.04-43.73-47.83-43.73-47.83,0,0,4.82,7.06.63,10.45-.99.8-2.06,1.14-3.14,1.14-5.35,0-11.18-8.15-11.18-8.15C156.65,28.78,110.06.15,110.06.15h0Z"/>
      </g>
      <g>
        <path class="cls-2" d="M14.13,200.66s25.76-38.68,80.21-44.91c0,0-14.04-12.91-40.14-18.81,0,0,33.12-16.84,76.07-11.51,0,0-3.09-7.86-17.68-15.72,0,0,37.61,4.49,56.7,17.4,0,0-33.4,5.05-45.19,21.33,0,0,58.1,7.02,56.42,27.51-.81,9.82-16,7.2-16,7.2,0,0,35.09,12.66,35.09,19.93s-8.14,7.27-8.14,7.27c0,0,29.69,24.52,58.41-1.15,0,0-10.86,3.96-22.48-4.43,0,0,6.87-3.01,7.58-9.26,0,0-6.77.14-15.11-4.12-10.84-5.53-10.73-20.32-14.65-28.65-3.91-8.3-12.63-11.58-12.63-11.58,0,0,72.19,4.98,77.8,36.79,0,0,5.77-4.59,10.34-12.09,0,0,18.76,10.52,21.15,11.96,0,0-3.82-37.29-31.16-57.3,0,0,1.52,7.03-1.13,8.92-4.67,3.33-18.19-8.95-29.36-11.1-6.98-1.34-23.78,2.61-23.78,2.61,0,0-3.24-5.82-18.81-17.4l16.84-.28s25.29,19.03,30.3,5.64c5.69-15.2-43.85-47.53-43.85-47.53,0,0,6.25,9.7-1.89,10.83-3.89.54-35.74-21.18-68.51-38.31C94.68,25.16,57.84,10.82,57.84,10.82c0,0,57.22,45.64,75.1,65.67,0,0-27.84-12.75-61.37-10.7,0,0,34.44,13.71,30.05,23.43-3.93,8.7-35.49-1.56-58.79-1.66-19.08-.08-27.18,5.81-27.18,5.81,0,0,63.78,1.08-12.77,40.1,0,1.12.24,17.63,11.23,67.19Z"/>
        <path class="cls-5" d="M14.13,200.66c4.57-6.41,10.11-12.11,16.07-17.25,5.98-5.13,12.42-9.74,19.34-13.54,6.9-3.8,14.1-7.13,21.66-9.43,3.72-1.35,7.59-2.15,11.42-3.1,1.91-.54,3.88-.74,5.82-1.07l5.85-.93-.23.71c-2.78-2.39-5.89-4.47-9.06-6.39-3.18-1.9-6.48-3.62-9.85-5.15-3.4-1.48-6.83-2.9-10.37-4.02-1.75-.63-3.55-1.08-5.32-1.61-1.79-.5-3.6-.9-5.39-1.35l-1.63-.41,1.49-.72c5.92-2.85,12.07-5.02,18.33-6.85,6.26-1.82,12.63-3.27,19.09-4.24,6.45-.98,12.96-1.63,19.49-1.71,6.53-.23,13.06.25,19.56.9l-.99,1.28c-.33-.74-.87-1.62-1.42-2.38-.55-.79-1.17-1.53-1.8-2.26-1.29-1.46-2.73-2.79-4.23-4.04-1.49-1.27-3.11-2.39-4.74-3.49l-2.51-1.56-2.58-1.45-4.46-2.51,5.06.64c4.99.63,9.9,1.48,14.81,2.45,4.9.99,9.79,2.08,14.61,3.43,4.82,1.36,9.62,2.83,14.29,4.72,4.66,1.89,9.25,4.05,13.51,6.85l2.43,1.6-2.9.48c-4.11.69-8.24,1.68-12.29,2.81-4.05,1.15-8.06,2.47-11.92,4.11-3.84,1.65-7.66,3.44-11.09,5.78-3.44,2.31-6.61,5-9.04,8.25l-.88-2c7.24.94,14.36,2.28,21.44,3.99,7.06,1.74,14.07,3.83,20.77,6.93,3.33,1.57,6.6,3.41,9.5,5.87,1.48,1.19,2.77,2.67,3.89,4.3,1.08,1.67,1.81,3.62,2.07,5.67,0,1.03.1,2.04-.1,3.09-.19,1.04-.56,2.09-1.14,3.02-1.16,1.91-3.08,3.15-4.96,3.81-1.9.69-3.84.96-5.74,1.05-1.92.08-3.76,0-5.71-.3l.75-2.85c4.23,1.54,8.38,3.19,12.51,4.95,4.12,1.77,8.21,3.64,12.2,5.78,1.99,1.08,3.96,2.22,5.87,3.54.96.65,1.89,1.39,2.79,2.19.88.86,1.79,1.75,2.42,3.18l.21.55c.05.21.08.44.11.66.08.5.03.77.01,1.11-.03.33-.03.66-.09.99l-.23.99c-.38,1.32-1.12,2.59-2.14,3.54-1.01.96-2.22,1.6-3.43,2.01-1.25.41-2.4.64-3.79.69l1.01-2.82c3.97,3.06,8.68,5.57,13.48,7.34,4.84,1.77,9.94,2.8,15.05,2.83,2.55,0,5.1-.26,7.6-.74,2.5-.5,4.93-1.3,7.3-2.25,4.69-2.02,9.02-4.89,12.88-8.33l1.66,2.77c-2.22.71-4.22.95-6.36,1.02-2.1.05-4.22-.11-6.27-.56-2.05-.46-4.08-1.05-5.97-1.96-.98-.39-1.86-.94-2.79-1.43-.9-.52-1.75-1.13-2.63-1.69l-2.44-1.57,2.75-1.29c.74-.35,1.61-.88,2.34-1.43.75-.56,1.44-1.18,2.05-1.86.61-.67,1.09-1.42,1.48-2.2.4-.78.58-1.61.72-2.45l1.69,1.86c-1.62-.01-2.99-.19-4.44-.43-1.43-.25-2.84-.58-4.23-.98-2.78-.84-5.43-1.85-8.01-3.33-2.66-1.5-4.88-3.74-6.49-6.24-1.63-2.51-2.73-5.22-3.62-7.93-.89-2.71-1.56-5.43-2.28-8.07-.72-2.64-1.47-5.22-2.65-7.45-2.31-4.47-6.71-8-11.3-9.97l-9.8-4.2,10.52.86c7.68.63,15.21,1.7,22.73,3.15,7.51,1.45,14.96,3.29,22.24,5.77,3.65,1.22,7.23,2.67,10.73,4.31,3.51,1.63,6.92,3.54,10.12,5.82,3.19,2.27,6.2,4.92,8.65,8.13,2.45,3.19,4.27,6.99,4.98,11.04l-2.89-1.09c.91-.75,1.88-1.67,2.78-2.57.9-.91,1.78-1.86,2.61-2.84,1.67-1.96,3.18-4.04,4.53-6.22l.92-1.49,1.51.85,21.21,11.97-2.77,1.75c-.69-5.3-1.99-10.73-3.62-15.93-1.65-5.22-3.74-10.3-6.23-15.16-2.44-4.89-5.5-9.43-8.9-13.66l-2.64-3.1c-.94-.98-1.92-1.91-2.88-2.87l-1.45-1.43-1.57-1.28-3.15-2.56,2.92-1.89c.29,1.52.46,2.91.47,4.44-.02,1.51-.07,3.12-1.03,4.92-.5.91-1.53,1.77-2.55,2.08-1.03.34-2,.32-2.85.23-1.67-.25-3.06-.78-4.39-1.34-5.22-2.35-9.74-5.32-14.57-7.56-2.39-1.13-4.83-2.11-7.28-2.65-2.3-.51-4.98-.35-7.6-.15-5.28.48-10.65,1.46-15.87,2.62l-1.28.29-.71-1.17c-.15-.25-.49-.72-.77-1.09-.3-.39-.63-.78-.96-1.17-.67-.77-1.36-1.54-2.1-2.28-1.46-1.49-2.98-2.94-4.57-4.33-3.15-2.8-6.49-5.43-9.89-7.97l-4.19-3.14,5.22-.08,16.84-.27h.59s.5.36.5.36c3.31,2.42,6.91,4.67,10.58,6.53,1.84.93,3.73,1.76,5.63,2.41,1.9.65,3.85,1.11,5.69,1.12.92.02,1.79-.09,2.55-.37.78-.25,1.42-.67,1.94-1.25.55-.54.94-1.33,1.24-2.11.07-.4.23-.76.26-1.18,0-.42.08-.83.02-1.27-.11-1.74-.83-3.59-1.77-5.33-.92-1.76-2.07-3.45-3.34-5.07-5.09-6.5-11.47-12.15-17.96-17.51-6.53-5.33-13.39-10.36-20.38-15.04l2.34-2.33c1.05,1.74,1.83,3.45,2.32,5.49.18,1.04.36,2.12.1,3.36-.02.29-.16.61-.27.91-.12.3-.21.61-.43.88-.19.28-.39.55-.59.81-.23.22-.49.42-.74.63l-.39.3c-.13.07-.27.13-.4.2l-.82.37c-.54.21-1.07.27-1.6.41-.17.07-.77.08-1.19.03-.3-.06-.62-.13-.89-.21-.5-.16-.99-.34-1.42-.53-1.77-.76-3.36-1.61-4.96-2.48-6.35-3.51-12.46-7.25-18.62-10.92-12.3-7.38-24.62-14.68-37.21-21.48-12.59-6.77-25.47-13.06-38.48-19.04-13.02-5.96-26.17-11.69-39.44-16.99l1.47-2.55c12.97,10.46,25.79,21.08,38.44,31.92,6.33,5.42,12.58,10.92,18.75,16.53,6.16,5.62,12.26,11.32,17.91,17.56l3.87,4.27-5.31-2.31c-4.68-2.04-9.65-3.73-14.62-5.17-4.98-1.45-10.05-2.64-15.16-3.54-2.55-.51-5.13-.81-7.7-1.19-2.58-.25-5.16-.61-7.75-.72-5.18-.42-10.37-.32-15.55-.12l.34-2.09c5.01,2.07,9.88,4.37,14.64,6.97,2.37,1.3,4.71,2.68,6.96,4.22,2.24,1.55,4.46,3.19,6.37,5.26.95,1.03,1.85,2.17,2.46,3.57.62,1.36.85,3.15.18,4.68-.61,1.6-2.09,2.61-3.45,3.14-1.39.57-2.8.78-4.19.92-2.78.26-5.5.12-8.21-.1-2.7-.22-5.38-.55-8.04-.93-10.65-1.49-21.19-3.47-31.84-4.06-5.31-.3-10.65-.1-15.9.64-2.62.4-5.22.94-7.75,1.7-2.5.76-5.05,1.73-7.17,3.09l-.37-1.16c3.31.12,6.57.44,9.83.98,3.24.56,6.49,1.31,9.54,2.69,1.51.7,3.01,1.56,4.21,2.84,1.21,1.23,1.99,3.05,1.81,4.83-.12,1.78-.93,3.35-1.82,4.76-.92,1.41-2.03,2.65-3.19,3.83-4.72,4.65-10.25,8.24-15.81,11.66-5.6,3.39-11.37,6.46-17.2,9.42l.16-.26c.14,5.64.88,11.3,1.63,16.92.78,5.62,1.67,11.24,2.67,16.83.97,5.6,2.05,11.18,3.15,16.75,1.13,5.58,2.27,11.11,3.48,16.69ZM14.13,200.66l-1.85-8.32-1.78-8.34c-1.15-5.57-2.27-11.14-3.3-16.73-1.04-5.59-1.98-11.19-2.82-16.82-.8-5.63-1.59-11.26-1.78-16.98v-.18s.16-.09.16-.09c5.79-3,11.53-6.11,17.07-9.54,5.51-3.44,10.98-7.09,15.55-11.66,1.12-1.15,2.18-2.37,3.04-3.7.84-1.33,1.54-2.79,1.62-4.29.14-1.5-.5-2.95-1.56-4.03-1.05-1.11-2.45-1.91-3.89-2.56-2.91-1.29-6.1-2-9.28-2.52-3.19-.5-6.44-.8-9.66-.88l-2.06-.05,1.69-1.1c2.39-1.56,4.92-2.51,7.52-3.34,2.6-.81,5.26-1.39,7.93-1.82,5.36-.8,10.79-1.05,16.19-.8,10.8.5,21.41,2.41,32.01,3.79,2.65.34,5.3.66,7.95.86,2.64.2,5.3.32,7.86.06,1.27-.13,2.55-.34,3.64-.8,1.09-.45,2.01-1.12,2.36-2.09.83-1.95-.55-4.33-2.29-6.12-1.73-1.87-3.87-3.45-6.04-4.93-2.19-1.48-4.48-2.81-6.81-4.08-4.67-2.52-9.53-4.79-14.44-6.79l-4.6-1.88,4.93-.22c5.27-.23,10.56-.36,15.83.04,2.64.1,5.26.44,7.88.69,2.61.37,5.24.67,7.82,1.17,5.2.89,10.35,2.07,15.42,3.52,5.08,1.45,10.06,3.11,14.99,5.23l-1.44,1.95c-5.55-6.06-11.66-11.72-17.81-17.28-6.17-5.55-12.44-11.01-18.77-16.38-12.67-10.75-25.53-21.31-38.52-31.67l-7.73-6.17,9.19,3.62c13.4,5.28,26.59,10.93,39.69,16.88,13.07,5.98,26,12.27,38.69,19.07,12.68,6.82,25.05,14.13,37.37,21.49,6.16,3.66,12.3,7.4,18.52,10.82,1.55.84,3.13,1.68,4.66,2.32.39.17.75.3,1.1.41l.42.1s-.12.05.14-.03c.33-.09.71-.13,1-.25.13-.07.27-.13.41-.19l.21-.09.14-.13c.46-.26.59-.68.74-1.2.14-.53.03-1.27-.09-1.98-.33-1.45-1.05-3.05-1.86-4.38l-4.02-6.57,6.36,4.24c7.16,4.77,14.04,9.81,20.7,15.22,6.61,5.45,13.1,11.14,18.53,18.04,1.35,1.73,2.61,3.56,3.67,5.57,1.06,1.99,1.98,4.18,2.17,6.71.07.62-.02,1.28-.03,1.92-.05.64-.28,1.29-.43,1.93-.44,1.19-1.02,2.35-1.97,3.34-.43.52-1,.91-1.54,1.32-.59.33-1.18.67-1.81.86-1.25.44-2.52.59-3.72.56-2.43-.02-4.66-.59-6.78-1.3-2.12-.72-4.14-1.61-6.1-2.59-3.91-1.99-7.56-4.26-11.12-6.85l1.09.36-16.84.29,1.04-3.22c3.47,2.59,6.88,5.26,10.14,8.15,1.64,1.43,3.23,2.94,4.77,4.51.77.78,1.52,1.6,2.26,2.45.36.43.73.86,1.08,1.32.37.48.67.86,1.07,1.54l-1.99-.88c5.41-1.21,10.8-2.21,16.38-2.73,1.39-.13,2.8-.21,4.24-.21.71-.03,1.46.05,2.19.08.74.09,1.55.16,2.25.34,2.89.63,5.54,1.71,8.07,2.9,5.06,2.36,9.73,5.37,14.47,7.49,1.17.51,2.36.92,3.4,1.06.5.06.93.03,1.19-.06.28-.12.36-.17.54-.45.35-.62.54-1.83.52-3.02,0-1.19-.16-2.52-.39-3.68l-.99-5.06,3.9,3.16,3.35,2.71,1.67,1.36,1.53,1.51c1.02,1.01,2.06,2,3.05,3.03l2.78,3.27c3.57,4.46,6.77,9.23,9.31,14.33,2.59,5.07,4.74,10.34,6.45,15.75,1.68,5.44,3,10.9,3.74,16.66l.46,3.58-3.23-1.83-21.09-11.95,2.43-.64c-1.45,2.35-3.08,4.59-4.87,6.68-.89,1.05-1.83,2.06-2.8,3.04-.98.99-1.95,1.9-3.09,2.84l-2.35,1.94-.54-3.03c-.61-3.44-2.14-6.68-4.29-9.5-2.16-2.83-4.89-5.27-7.86-7.39-2.97-2.13-6.2-3.95-9.57-5.52-3.36-1.57-6.82-2.98-10.36-4.17-7.08-2.42-14.38-4.24-21.76-5.68-7.37-1.43-14.87-2.51-22.31-3.13l.73-3.34c2.87,1.19,5.26,2.75,7.54,4.68,2.22,1.93,4.19,4.24,5.58,6.92,1.4,2.68,2.17,5.47,2.91,8.16.73,2.7,1.38,5.35,2.22,7.91.83,2.55,1.84,5,3.23,7.14,1.38,2.14,3.17,3.94,5.33,5.17,2.21,1.28,4.76,2.28,7.28,3.03,1.27.37,2.56.68,3.85.9,1.27.22,2.66.38,3.81.39l1.97.02-.28,1.84c-.18,1.21-.48,2.42-1.03,3.51-.54,1.08-1.2,2.09-1.99,2.96-.78.87-1.64,1.65-2.56,2.33-.94.69-1.84,1.26-2.99,1.8l.31-2.87c.79.5,1.55,1.06,2.35,1.52.82.43,1.62.94,2.48,1.28,1.68.81,3.47,1.33,5.27,1.74,1.81.4,3.67.54,5.51.5.92-.01,1.84-.11,2.75-.23.88-.14,1.85-.34,2.57-.58l7.57-2.49-5.92,5.26c-4.08,3.63-8.72,6.71-13.8,8.89-2.57,1.03-5.2,1.89-7.92,2.43-2.72.52-5.48.79-8.25.79-5.53-.04-11-1.16-16.14-3.05-5.15-1.94-9.95-4.46-14.4-7.9l-3.41-2.63,4.43-.18c1.79-.07,3.87-.67,5.05-1.83.61-.58,1.02-1.29,1.27-2.1l.15-.63c.04-.22.03-.45.06-.68.02-.22.05-.5,0-.55-.01-.05-.01-.1-.01-.16l-.1-.22c-.25-.62-.91-1.39-1.63-2.07-.76-.67-1.57-1.33-2.45-1.94-1.75-1.22-3.63-2.33-5.55-3.38-3.85-2.09-7.87-3.95-11.92-5.71-4.06-1.75-8.18-3.41-12.31-4.94l-13.01-4.82,13.77,1.97c3.29.47,6.95.48,9.96-.56,1.5-.53,2.77-1.4,3.51-2.6.37-.6.62-1.28.76-2.01.15-.74.06-1.53.09-2.31-.21-1.54-.74-3.04-1.61-4.41-.93-1.34-2.01-2.62-3.34-3.7-2.59-2.23-5.66-3.99-8.85-5.51-6.41-3.01-13.29-5.1-20.23-6.85-6.95-1.72-14.04-3.08-21.11-4.03l-2.16-.29,1.29-1.71c2.69-3.58,6.11-6.42,9.73-8.83,3.62-2.44,7.56-4.26,11.53-5.94,3.98-1.66,8.07-2.99,12.21-4.14,4.15-1.14,8.3-2.12,12.58-2.81l-.47,2.08c-4.05-2.69-8.5-4.82-13.05-6.69-4.56-1.87-9.29-3.34-14.04-4.71-4.76-1.36-9.59-2.46-14.45-3.47-4.85-.98-9.75-1.85-14.64-2.49l.59-1.87,2.64,1.5,2.58,1.62c1.68,1.14,3.35,2.32,4.9,3.65,1.56,1.31,3.06,2.71,4.42,4.26.67.78,1.33,1.58,1.92,2.44.61.87,1.14,1.7,1.62,2.78l.64,1.45-1.63-.17c-6.4-.68-12.84-1.22-19.3-1.05-6.45.02-12.9.61-19.28,1.53-6.39.9-12.72,2.28-18.94,4.03-6.21,1.76-12.36,3.88-18.16,6.61l-.14-1.13c1.81.47,3.64.89,5.44,1.41,1.79.55,3.6,1.03,5.36,1.68,3.56,1.16,7.02,2.62,10.44,4.15,3.4,1.58,6.71,3.34,9.91,5.29,3.19,1.97,6.29,4.07,9.14,6.57l.66.58-.89.13-5.82.88c-1.94.32-3.9.5-5.79,1.02-3.82.91-7.68,1.67-11.38,2.98-7.54,2.22-14.74,5.47-21.65,9.2-6.92,3.72-13.39,8.27-19.41,13.34-6,5.08-11.57,10.72-16.2,17.09Z"/>
      </g>
    </g>
  </g>
</svg>